# xmcd
#
# Track frame offsets:
#	150
#	3106
#	33485
#	69557
#	104861
#	150108
#	166717
#	196173
#	236649
#	254234
#	269676
#	294998
#
# Disc length: 4349 seconds
#
# Revision: 0
# Processed by: cddbd v1.5.2PL0 Copyright (c) Steve Scherf et al.
# Submitted via: audiograbber 1.83.01
#
DISCID=a210fb0c
DTITLE=Grateful Dead - 82-12-28 Oakland Auditorium Arena, Oakland CA
DYEAR=1900
DGENRE=
TTITLE0=Tuning
TTITLE1=Jack Straw
TTITLE2=Tennessee Jed
TTITLE3=El Paso
TTITLE4=Friend Of The Devil
TTITLE5=On The Road Again
TTITLE6=Touch Of Grey
TTITLE7=Man Smart, Women Smarter
TTITLE8=Dire Wolf
TTITLE9=Lazy Lightning
TTITLE10=Supplication
TTITLE11=Deal
EXTD=
EXTT0=
EXTT1=
EXTT2=
EXTT3=
EXTT4=
EXTT5=
EXTT6=
EXTT7=
EXTT8=
EXTT9=
EXTT10=
EXTT11=
PLAYORDER=
